<!--?xml version="1.0" encoding="utf-8"?-->
<!-- Generator: Adobe Illustrator 15.1.0, SVG Export Plug-In . SVG Version: 6.00 Build 0)  -->

<svg version="1.1" id="_x32_" xmlns="http://www.w3.org/2000/svg" xmlns:xlink="http://www.w3.org/1999/xlink" x="0px" y="0px" width="512px" height="512px" viewBox="0 0 512 512" style="width: 256px; height: 256px; opacity: 1;" xml:space="preserve">
<style type="text/css">

	.st0{fill:#4B4B4B;}

</style>
<g>
	<path class="st0" d="M509.599,106.456c-2.406-12.453-6.641-24.625-12.672-36.109s-13.891-22.234-23.469-31.813
		c-12.75-12.781-27.672-22.484-43.531-28.906c-23.812-9.641-49.718-12.016-74.593-7.234C342.912,4.8,330.771,9.019,319.24,15.065
		c-11.469,6.016-22.25,13.859-31.844,23.469l-62.344,62.328c-12.563,12.578-12.563,32.953,0,45.516
		c12.594,12.578,32.984,12.578,45.547,0l62.328-62.328c6.625-6.625,14.141-11.453,22.219-14.766
		c12.078-4.906,25.453-6.141,38.141-3.703c6.375,1.266,12.578,3.406,18.375,6.453c5.844,3.047,11.297,7.063,16.281,12.016
		c6.625,6.625,11.484,14.125,14.766,22.172c4.891,12.109,6.141,25.484,3.672,38.172c-1.219,6.344-3.359,12.594-6.453,18.391
		c-3.031,5.859-7.016,11.297-11.984,16.266l-62.343,62.375c-12.547,12.547-12.547,32.922,0,45.5
		c12.578,12.563,32.938,12.563,45.516,0l62.343-62.359c12.797-12.75,22.469-27.656,28.922-43.531
		C512.021,157.222,514.396,131.315,509.599,106.456z" style="fill: rgb(255, 255, 255);"></path>
	<path class="st0" d="M241.396,365.597l-62.359,62.344c-6.609,6.625-14.125,11.484-22.188,14.734
		c-12.078,4.922-25.453,6.172-38.141,3.703c-6.375-1.25-12.563-3.375-18.391-6.438c-5.828-3.078-11.313-7.031-16.281-12
		c-6.578-6.625-11.484-14.141-14.75-22.203c-4.906-12.078-6.172-25.453-3.656-38.172c1.219-6.328,3.359-12.531,6.406-18.359
		c3.094-5.828,7.063-11.297,12-16.281l62.375-62.344c12.547-12.547,12.547-32.938,0-45.516c-12.563-12.594-32.953-12.594-45.516,0
		l-62.391,62.328c-12.75,12.781-22.469,27.672-28.859,43.547c-9.656,23.813-12.047,49.734-7.25,74.609
		c2.422,12.391,6.625,24.547,12.672,36.047c6.031,11.5,13.859,22.281,23.438,31.859c12.813,12.75,27.703,22.469,43.547,28.891
		c23.828,9.641,49.734,12.063,74.594,7.25c12.422-2.438,24.641-6.641,36.078-12.656c11.516-6.063,22.297-13.891,31.844-23.484
		l62.359-62.344c12.578-12.563,12.578-32.984,0-45.516C274.365,353.019,253.958,353.019,241.396,365.597z" style="fill: rgb(255, 255, 255);"></path>
	<path class="st0" d="M354.912,157.097c-12.578-12.578-32.953-12.578-45.531,0l-51.375,51.344l3.297,19.094l32.672,5.938
		l5.313,24.75l55.625-55.641C367.458,190.019,367.458,169.644,354.912,157.097z" style="fill: rgb(255, 255, 255);"></path>
	<path class="st0" d="M157.099,354.925c12.578,12.531,32.938,12.531,45.5,0l61.547-61.531l-5.313-24.797l-32.672-5.938
		l-3.266-19.094l-65.797,65.828C144.521,321.925,144.521,342.331,157.099,354.925z" style="fill: rgb(255, 255, 255);"></path>
	<polygon class="st0" points="190.833,108.003 181.068,37.331 148.146,45.175 171.427,112.644 	" style="fill: rgb(255, 255, 255);"></polygon>
	<polygon class="st0" points="123.927,160.925 61.568,126.222 48.083,157.284 115.943,179.206 	" style="fill: rgb(255, 255, 255);"></polygon>
	<polygon class="st0" points="318.271,397.69 328.037,468.331 360.958,460.487 337.677,393.05 	" style="fill: rgb(255, 255, 255);"></polygon>
	<polygon class="st0" points="385.208,344.737 447.536,379.425 461.036,348.409 393.162,326.425 	" style="fill: rgb(255, 255, 255);"></polygon>
</g>
</svg>
